# xmcd CD database file
#
# Track frame offsets:
#	150
#	23245
#	45893
#	70220
#	93980
#	114623
#	137993
#	151503
#	172863
#	191180
#	214763
#	240163
#	258123
#	287750
#	312020
#
# Disc length: 4474 seconds
#
# Revision: 0
# Processed by: cddbd v1.5.1PL0 Copyright (c) Steve Scherf et al.
# Submitted via: CDex 1.51
#
DISCID=be11780f
DTITLE=TINGARA - BEST
DYEAR=2005
DGENRE=New Age
TTITLE0=星月夜
TTITLE1=海ぬ都
TTITLE2=WATARIDORI
TTITLE3=星ぬ子守唄
TTITLE4=夜間飛行
TTITLE5=神々の時間
TTITLE6=輝く夜に
TTITLE7=太陽の花
TTITLE8=崎枝
TTITLE9=天河原ナークニー
TTITLE10=てぃんさぐぬ花
TTITLE11=夏の薫り
TTITLE12=光さんさん
TTITLE13=海風
TTITLE14=燃ゆる陽
EXTD=YEAR: 2005
EXTT0=
EXTT1=
EXTT2=
EXTT3=
EXTT4=
EXTT5=
EXTT6=
EXTT7=
EXTT8=
EXTT9=
EXTT10=
EXTT11=
EXTT12=
EXTT13=
EXTT14=
PLAYORDER=
